<svg xmlns="http://www.w3.org/2000/svg" xmlns:xlink="http://www.w3.org/1999/xlink" width="73.338" height="95.427" viewBox="0 0 73.338 95.427">
  <defs>
    <linearGradient id="linear-gradient" y1="0.5" x2="1" y2="0.5" gradientUnits="objectBoundingBox">
      <stop offset="0" stop-color="#009344"/>
      <stop offset="1" stop-color="#77bf35"/>
    </linearGradient>
  </defs>
  <g id="Group_72" data-name="Group 72" transform="translate(-115.775 -306.931)">
    <g id="Group_4" data-name="Group 4" transform="translate(140.126 350.405)">
      <path id="Path_21" data-name="Path 21" d="M220.961,488.186v7.6h13.307v5.339H220.961V511.6h-6.653V482.847h21.727v5.339Z" transform="translate(-214.308 -482.847)" fill="#f0b310"/>
    </g>
    <g id="Group_71" data-name="Group 71">
      <path id="Path_22" data-name="Path 22" d="M181.085,424.982l-1.347-.106h0l-3.116,35.589-.047.546a3.713,3.713,0,0,1-1.984,2.7,3.657,3.657,0,0,1-1.673.4H129.063a3.646,3.646,0,0,1-1.671-.4h0a3.713,3.713,0,0,1-1.984-2.7v0l-.047-.529v-.015l-1.883-21.5,4.305,4.006a.821.821,0,0,0,1.206-.094l3.383-4.32,1.458,16.659H168.15l2.716-31.035-1.248-.1a.82.82,0,0,1-.494-1.419l2.041-1.9,0,0,.756-.7.067-.062,3.354-3.124a.823.823,0,0,1,1.206.094l2.825,3.608.057.072.6.771,0,0,1.755,2.239A.82.82,0,0,1,181.085,424.982Zm-48.047,5.709-1.347.106L129,400.014h15.17l-.018-.017-.005,0-.758-.7-.067-.062-3.374-3.1a.823.823,0,0,1,0-1.21l3.378-3.1.067-.062.7-.645H119.482a3.707,3.707,0,0,0-3.707,3.707v1.483a3.707,3.707,0,0,0,3.707,3.707h.586l2.756,31.477-1.253.1a.82.82,0,0,0-.494,1.418l2.046,1.905.756.7,3.42,3.186a.823.823,0,0,0,1.206-.094l2.882-3.68.605-.773,1.755-2.239A.82.82,0,0,0,133.037,430.69ZM182.5,391.117H151.372l0-1.337a.821.821,0,0,0-1.377-.605l-2.1,1.923,0,0-.017.015-.3.272-.408.373-.067.062-3.378,3.1a.819.819,0,0,0,0,1.208l3.373,3.1.067.062.408.376.351.324,0,.005.02.017,2.034,1.871a.821.821,0,0,0,1.377-.6v-1.268h21.612l-1.436,16.419.677-.628,3.42-3.186a.823.823,0,0,1,1.206.094l2.882,3.68.605.773.067.086,1.51-17.24h.586a3.707,3.707,0,0,0,3.707-3.707v-1.483A3.707,3.707,0,0,0,182.5,391.117Z" transform="translate(0 -61.754)" fill="url(#linear-gradient)"/>
      <path id="Path_23" data-name="Path 23" d="M323.827,312.29q-6.038,8.625-12.075,7.245c1.718-7.394,4.31-13.528,19.159-12.489.776,7.59-12.759,29.136-26.749,10.592C312.569,321.829,319.892,322.524,323.827,312.29Z" transform="translate(-141.83 0)" fill="url(#linear-gradient)"/>
    </g>
  </g>
</svg>
