<svg xmlns="http://www.w3.org/2000/svg" xmlns:xlink="http://www.w3.org/1999/xlink" width="189.909" height="95.427" viewBox="0 0 189.909 95.427">
  <defs>
    <linearGradient id="linear-gradient" y1="0.5" x2="1" y2="0.5" gradientUnits="objectBoundingBox">
      <stop offset="0" stop-color="#009344"/>
      <stop offset="1" stop-color="#77bf35"/>
    </linearGradient>
  </defs>
  <g id="Logo" transform="translate(-115.775 -306.931)">
    <g id="Group_2" data-name="Group 2" transform="translate(191.699 350.412)">
      <g id="Group_1" data-name="Group 1" transform="translate(0 0)">
        <path id="Path_1" data-name="Path 1" d="M422.995,482.872h6.652v28.743h-6.652Z" transform="translate(-422.995 -482.872)" fill="#009344"/>
        <path id="Path_2" data-name="Path 2" d="M477.491,482.872h6.652V506.2h14.413v5.42H477.491Z" transform="translate(-464.023 -482.872)" fill="#009344"/>
        <path id="Path_3" data-name="Path 3" d="M563.118,488.292h-9.2v-5.42h25.047v5.42h-9.2v23.323h-6.652Z" transform="translate(-521.564 -482.872)" fill="#009344"/>
        <path id="Path_4" data-name="Path 4" d="M691.979,506.277v5.338H669.724V482.872h21.722v5.338H676.335v6.241H689.68v5.174H676.335v6.652Z" transform="translate(-608.749 -482.872)" fill="#009344"/>
        <path id="Path_5" data-name="Path 5" d="M799.523,511.615l-5.543-8.007h-6.119v8.007H781.21V482.872h12.442a15.976,15.976,0,0,1,6.632,1.273,9.857,9.857,0,0,1,4.332,3.613,9.957,9.957,0,0,1,1.519,5.543,9.36,9.36,0,0,1-5.913,9.074l6.447,9.239Zm-1.684-22.03a6.985,6.985,0,0,0-4.558-1.294h-5.42v10.019h5.42A6.907,6.907,0,0,0,797.84,497a5.18,5.18,0,0,0,0-7.411Z" transform="translate(-692.684 -482.872)" fill="#009344"/>
      </g>
    </g>
    <g id="Group_3" data-name="Group 3" transform="translate(191.899 387.091)">
      <path id="Path_6" data-name="Path 6" d="M431.886,633.45l-1.72,5.19h-1.023l-1.283-3.84-1.3,3.84h-1.031l-1.72-5.19h1l1.29,3.944,1.342-3.944h.89l1.312,3.966,1.327-3.966Z" transform="translate(-423.805 -632.916)" fill="#f0b310"/>
      <path id="Path_7" data-name="Path 7" d="M471.518,638.669a1.62,1.62,0,0,1,.463,1.264v2.32h-.875v-.482a1.081,1.081,0,0,1-.486.4,1.9,1.9,0,0,1-.76.137,1.862,1.862,0,0,1-.779-.152,1.2,1.2,0,0,1-.515-.423,1.073,1.073,0,0,1-.182-.612,1.049,1.049,0,0,1,.4-.856,1.971,1.971,0,0,1,1.249-.323h1.023v-.059a.813.813,0,0,0-.248-.638,1.076,1.076,0,0,0-.738-.222,2.137,2.137,0,0,0-.656.1,1.62,1.62,0,0,0-.545.289l-.363-.675a2.258,2.258,0,0,1,.749-.363,3.328,3.328,0,0,1,.927-.126A1.931,1.931,0,0,1,471.518,638.669Zm-.845,2.8a.869.869,0,0,0,.382-.456v-.46H470.1q-.8,0-.8.526a.472.472,0,0,0,.2.4.917.917,0,0,0,.556.148A1.2,1.2,0,0,0,470.672,641.471Z" transform="translate(-457.368 -636.53)" fill="#f0b310"/>
      <path id="Path_8" data-name="Path 8" d="M498.039,642.179a2.36,2.36,0,0,1-.734-.319l.356-.7a2.282,2.282,0,0,0,.641.285,2.665,2.665,0,0,0,.738.108q.83,0,.83-.438a.292.292,0,0,0-.211-.289,3.643,3.643,0,0,0-.678-.156,5.464,5.464,0,0,1-.8-.17,1.224,1.224,0,0,1-.534-.337.943.943,0,0,1-.226-.671,1.054,1.054,0,0,1,.471-.9,2.141,2.141,0,0,1,1.271-.337,3.667,3.667,0,0,1,.816.093,2.3,2.3,0,0,1,.667.248l-.356.7a2.2,2.2,0,0,0-1.135-.3,1.257,1.257,0,0,0-.619.122.365.365,0,0,0-.211.322.322.322,0,0,0,.226.315,3.6,3.6,0,0,0,.7.174,5.4,5.4,0,0,1,.778.17,1.221,1.221,0,0,1,.523.326.91.91,0,0,1,.219.652,1.034,1.034,0,0,1-.482.89,2.276,2.276,0,0,1-1.312.333A3.544,3.544,0,0,1,498.039,642.179Z" transform="translate(-479.141 -636.53)" fill="#f0b310"/>
      <path id="Path_9" data-name="Path 9" d="M526.761,639.51a1.091,1.091,0,0,1-.4.2,1.8,1.8,0,0,1-.493.067,1.4,1.4,0,0,1-1.008-.341,1.312,1.312,0,0,1-.356-.993v-1.905h-.652V635.8h.652v-.9h.927v.9h1.06v.741h-1.06v1.883a.626.626,0,0,0,.141.441.528.528,0,0,0,.408.152.812.812,0,0,0,.519-.163Z" transform="translate(-499.129 -634.001)" fill="#f0b310"/>
      <path id="Path_10" data-name="Path 10" d="M552.278,640.571h-3.107a1.076,1.076,0,0,0,.427.693,1.4,1.4,0,0,0,.856.256,1.443,1.443,0,0,0,1.075-.43l.5.571a1.672,1.672,0,0,1-.674.482,2.673,2.673,0,0,1-2.069-.1,1.869,1.869,0,0,1-.767-.723,2.042,2.042,0,0,1-.271-1.049,2.068,2.068,0,0,1,.263-1.041,1.867,1.867,0,0,1,.73-.723,2.134,2.134,0,0,1,1.053-.259,2.076,2.076,0,0,1,1.034.256,1.811,1.811,0,0,1,.712.719,2.182,2.182,0,0,1,.256,1.071Q552.293,640.393,552.278,640.571Zm-2.74-1.316a1.108,1.108,0,0,0-.375.7h2.247a1.083,1.083,0,0,0-1.12-.964A1.116,1.116,0,0,0,549.539,639.255Z" transform="translate(-517.492 -636.53)" fill="#f0b310"/>
      <path id="Path_11" data-name="Path 11" d="M597.471,632.243a.547.547,0,0,1,0-.793.6.6,0,0,1,.423-.16.611.611,0,0,1,.422.152.49.49,0,0,1,.171.382.561.561,0,0,1-.167.412.578.578,0,0,1-.427.167A.6.6,0,0,1,597.471,632.243Zm-.044.812h.927v3.959h-.927Z" transform="translate(-554.424 -631.29)" fill="#f0b310"/>
      <path id="Path_12" data-name="Path 12" d="M616.784,642.179a2.359,2.359,0,0,1-.734-.319l.356-.7a2.28,2.28,0,0,0,.641.285,2.665,2.665,0,0,0,.738.108q.83,0,.83-.438a.292.292,0,0,0-.211-.289,3.642,3.642,0,0,0-.678-.156,5.447,5.447,0,0,1-.8-.17,1.223,1.223,0,0,1-.534-.337.943.943,0,0,1-.226-.671,1.054,1.054,0,0,1,.471-.9,2.141,2.141,0,0,1,1.271-.337,3.667,3.667,0,0,1,.816.093,2.294,2.294,0,0,1,.667.248l-.356.7a2.2,2.2,0,0,0-1.135-.3,1.257,1.257,0,0,0-.619.122.365.365,0,0,0-.211.322.322.322,0,0,0,.226.315,3.583,3.583,0,0,0,.7.174,5.407,5.407,0,0,1,.778.17,1.22,1.22,0,0,1,.523.326.91.91,0,0,1,.219.652,1.033,1.033,0,0,1-.482.89,2.275,2.275,0,0,1-1.312.333A3.542,3.542,0,0,1,616.784,642.179Z" transform="translate(-568.54 -636.53)" fill="#f0b310"/>
      <path id="Path_13" data-name="Path 13" d="M666.671,638.64l-1.06-1.52q-.067.007-.2.007h-1.171v1.512h-.964v-5.19h2.135a2.87,2.87,0,0,1,1.175.223,1.7,1.7,0,0,1,.767.638,1.782,1.782,0,0,1,.267.986,1.759,1.759,0,0,1-.286,1.008,1.7,1.7,0,0,1-.819.63l1.193,1.705Zm-.348-4.107a1.482,1.482,0,0,0-.957-.267h-1.127v2.069h1.127a1.466,1.466,0,0,0,.957-.271.942.942,0,0,0,.326-.767A.931.931,0,0,0,666.322,634.532Z" transform="translate(-604.094 -632.916)" fill="#f0b310"/>
      <path id="Path_14" data-name="Path 14" d="M698.958,640.571h-3.106a1.077,1.077,0,0,0,.426.693,1.4,1.4,0,0,0,.856.256,1.443,1.443,0,0,0,1.075-.43l.5.571a1.672,1.672,0,0,1-.675.482,2.673,2.673,0,0,1-2.068-.1,1.868,1.868,0,0,1-.767-.723,2.042,2.042,0,0,1-.271-1.049,2.069,2.069,0,0,1,.263-1.041,1.869,1.869,0,0,1,.73-.723,2.135,2.135,0,0,1,1.053-.259,2.077,2.077,0,0,1,1.034.256,1.811,1.811,0,0,1,.712.719,2.181,2.181,0,0,1,.256,1.071Q698.973,640.393,698.958,640.571Zm-2.739-1.316a1.108,1.108,0,0,0-.375.7h2.246a1.093,1.093,0,0,0-.363-.7,1.1,1.1,0,0,0-.756-.267A1.117,1.117,0,0,0,696.219,639.255Z" transform="translate(-627.922 -636.53)" fill="#f0b310"/>
      <path id="Path_15" data-name="Path 15" d="M725.209,642.179a2.359,2.359,0,0,1-.734-.319l.356-.7a2.283,2.283,0,0,0,.641.285,2.665,2.665,0,0,0,.738.108q.83,0,.831-.438a.292.292,0,0,0-.211-.289,3.639,3.639,0,0,0-.679-.156,5.457,5.457,0,0,1-.8-.17,1.225,1.225,0,0,1-.534-.337.943.943,0,0,1-.226-.671,1.055,1.055,0,0,1,.471-.9,2.143,2.143,0,0,1,1.272-.337,3.664,3.664,0,0,1,.815.093,2.3,2.3,0,0,1,.667.248l-.356.7a2.2,2.2,0,0,0-1.134-.3,1.257,1.257,0,0,0-.619.122.365.365,0,0,0-.211.322.322.322,0,0,0,.226.315,3.6,3.6,0,0,0,.7.174,5.411,5.411,0,0,1,.779.17,1.22,1.22,0,0,1,.523.326.91.91,0,0,1,.219.652,1.033,1.033,0,0,1-.482.89,2.274,2.274,0,0,1-1.312.333A3.544,3.544,0,0,1,725.209,642.179Z" transform="translate(-650.17 -636.53)" fill="#f0b310"/>
      <path id="Path_16" data-name="Path 16" d="M752.858,642.046a1.888,1.888,0,0,1-.753-.723,2.04,2.04,0,0,1-.271-1.049,2.019,2.019,0,0,1,.271-1.045,1.9,1.9,0,0,1,.753-.719,2.4,2.4,0,0,1,2.172,0,1.905,1.905,0,0,1,.752.719,2.023,2.023,0,0,1,.27,1.045,2.044,2.044,0,0,1-.27,1.049,1.892,1.892,0,0,1-.752.723,2.4,2.4,0,0,1-2.172,0Zm1.927-.875a1.373,1.373,0,0,0,0-1.794,1.132,1.132,0,0,0-.845-.341,1.121,1.121,0,0,0-.842.341,1.384,1.384,0,0,0,0,1.794,1.121,1.121,0,0,0,.842.341A1.132,1.132,0,0,0,754.786,641.171Z" transform="translate(-670.768 -636.53)" fill="#f0b310"/>
      <path id="Path_17" data-name="Path 17" d="M787.647,638.431v3.959h-.882v-.5a1.475,1.475,0,0,1-.556.411,1.789,1.789,0,0,1-.719.145,1.721,1.721,0,0,1-1.25-.441,1.741,1.741,0,0,1-.456-1.309v-2.261h.927v2.135a1.145,1.145,0,0,0,.241.8.882.882,0,0,0,.686.263,1.039,1.039,0,0,0,.79-.308,1.236,1.236,0,0,0,.293-.886v-2Z" transform="translate(-694.822 -636.666)" fill="#f0b310"/>
      <path id="Path_18" data-name="Path 18" d="M818.025,638.25v.882a1.176,1.176,0,0,0-.215-.022,1.119,1.119,0,0,0-.845.315,1.257,1.257,0,0,0-.3.908v1.92h-.927v-3.959h.882v.578A1.544,1.544,0,0,1,818.025,638.25Z" transform="translate(-718.876 -636.53)" fill="#f0b310"/>
      <path id="Path_19" data-name="Path 19" d="M839.152,642.046a1.9,1.9,0,0,1-.764-.723,2.019,2.019,0,0,1-.275-1.049,2,2,0,0,1,.275-1.045,1.922,1.922,0,0,1,.76-.719,2.319,2.319,0,0,1,1.108-.259,2.137,2.137,0,0,1,1.027.237,1.542,1.542,0,0,1,.663.682l-.712.415a1.13,1.13,0,0,0-.426-.412,1.245,1.245,0,0,0-1.42.2,1.366,1.366,0,0,0,0,1.8,1.25,1.25,0,0,0,1.424.2,1.127,1.127,0,0,0,.426-.411l.712.415a1.6,1.6,0,0,1-.671.686,2.094,2.094,0,0,1-1.019.241A2.317,2.317,0,0,1,839.152,642.046Z" transform="translate(-735.725 -636.53)" fill="#f0b310"/>
      <path id="Path_20" data-name="Path 20" d="M870.737,640.571h-3.107a1.077,1.077,0,0,0,.427.693,1.4,1.4,0,0,0,.856.256,1.442,1.442,0,0,0,1.075-.43l.5.571a1.675,1.675,0,0,1-.675.482,2.674,2.674,0,0,1-2.069-.1,1.867,1.867,0,0,1-.767-.723,2.04,2.04,0,0,1-.271-1.049,2.071,2.071,0,0,1,.264-1.041,1.87,1.87,0,0,1,.73-.723,2.134,2.134,0,0,1,1.053-.259,2.077,2.077,0,0,1,1.034.256,1.815,1.815,0,0,1,.712.719,2.184,2.184,0,0,1,.255,1.071Q870.752,640.393,870.737,640.571ZM868,639.255a1.106,1.106,0,0,0-.374.7h2.246a1.093,1.093,0,0,0-.363-.7,1.1,1.1,0,0,0-.756-.267A1.117,1.117,0,0,0,868,639.255Z" transform="translate(-757.249 -636.53)" fill="#f0b310"/>
    </g>
    <g id="Group_4" data-name="Group 4" transform="translate(140.126 350.405)">
      <path id="Path_21" data-name="Path 21" d="M220.961,488.186v7.6h13.307v5.339H220.961V511.6h-6.653V482.847h21.727v5.339Z" transform="translate(-214.308 -482.847)" fill="#f0b310"/>
    </g>
    <path id="Path_22" data-name="Path 22" d="M181.085,424.982l-1.347-.106h0l-3.116,35.589-.047.546a3.713,3.713,0,0,1-1.984,2.7,3.657,3.657,0,0,1-1.673.4H129.063a3.646,3.646,0,0,1-1.671-.4h0a3.713,3.713,0,0,1-1.984-2.7v0l-.047-.529v-.015l-1.883-21.5,4.305,4.006a.821.821,0,0,0,1.206-.094l3.383-4.32,1.458,16.659H168.15l2.716-31.035-1.248-.1a.82.82,0,0,1-.494-1.419l2.041-1.9,0,0,.756-.7.067-.062,3.354-3.124a.823.823,0,0,1,1.206.094l2.825,3.608.057.072.6.771,0,0,1.755,2.239A.82.82,0,0,1,181.085,424.982Zm-48.047,5.709-1.347.106L129,400.014h15.17l-.018-.017-.005,0-.758-.7-.067-.062-3.374-3.1a.823.823,0,0,1,0-1.21l3.378-3.1.067-.062.7-.645H119.482a3.707,3.707,0,0,0-3.707,3.707v1.483a3.707,3.707,0,0,0,3.707,3.707h.586l2.756,31.477-1.253.1a.82.82,0,0,0-.494,1.418l2.046,1.905.756.7,3.42,3.186a.823.823,0,0,0,1.206-.094l2.882-3.68.605-.773,1.755-2.239A.82.82,0,0,0,133.037,430.69ZM182.5,391.117H151.372l0-1.337a.821.821,0,0,0-1.377-.605l-2.1,1.923,0,0-.017.015-.3.272-.408.373-.067.062-3.378,3.1a.819.819,0,0,0,0,1.208l3.373,3.1.067.062.408.376.351.324,0,.005.02.017,2.034,1.871a.821.821,0,0,0,1.377-.6v-1.268h21.612l-1.436,16.419.677-.628,3.42-3.186a.823.823,0,0,1,1.206.094l2.882,3.68.605.773.067.086,1.51-17.24h.586a3.707,3.707,0,0,0,3.707-3.707v-1.483A3.707,3.707,0,0,0,182.5,391.117Z" transform="translate(0 -61.754)" fill="url(#linear-gradient)"/>
    <path id="Path_23" data-name="Path 23" d="M323.827,312.29q-6.038,8.625-12.075,7.245c1.718-7.394,4.31-13.528,19.159-12.489.776,7.59-12.759,29.136-26.749,10.592C312.569,321.829,319.892,322.524,323.827,312.29Z" transform="translate(-141.83 0)" fill="url(#linear-gradient)"/>
  </g>
</svg>
