<svg xmlns="http://www.w3.org/2000/svg" xmlns:xlink="http://www.w3.org/1999/xlink" width="694.016" height="464.317" viewBox="0 0 694.016 464.317">
  <defs>
    <linearGradient id="linear-gradient" y1="0.5" x2="1" y2="0.5" gradientUnits="objectBoundingBox">
      <stop offset="0" stop-color="#009344"/>
      <stop offset="1" stop-color="#77bf35"/>
    </linearGradient>
  </defs>
  <g id="Group_27" data-name="Group 27" transform="translate(-821.964 -3721.065)" opacity="0.246">
    <path id="Path_35" data-name="Path 35" d="M1127.621,4185.382a261.012,261.012,0,0,1-91.37-16.9,322.089,322.089,0,0,1-50.384-24.142,409.764,409.764,0,0,1-51.174-35.843,545.908,545.908,0,0,1-51.723-48.461,743.835,743.835,0,0,1-52.046-62.012l-8.961-11.876,13.315,6.638c67.765,33.785,125.982,55.221,177.978,65.535,28.547,5.662,55.636,7.954,80.514,6.811,26.18-1.2,50.873-6.248,73.395-15a213.8,213.8,0,0,0,47.06-25.555,250.488,250.488,0,0,0,42.881-39.443,344.9,344.9,0,0,0,38.356-54.707,480.258,480.258,0,0,0,22.129-44,684.716,684.716,0,0,1-59.483,69.868c-25.591,25.956-51.565,46.917-77.2,62.3-25.743,15.446-51.875,25.707-77.671,30.5a191.467,191.467,0,0,1-38.969,3.2,193.867,193.867,0,0,1-38.96-4.869l-3.423-.783.795-3.42c9.592-41.278,22.028-89.344,41.535-132.858,20.066-44.763,45.445-79.9,77.587-107.421a282.365,282.365,0,0,1,60.8-39.439c23.673-11.448,50.509-20.678,79.763-27.433,30.549-7.055,64.861-11.673,101.984-13.728,38.539-2.132,81.46-1.578,127.572,1.648l2.937.205.3,2.929c3.01,29.428-2.235,67.161-15.167,109.118-13.025,42.259-33.238,86.764-58.452,128.7a625.6,625.6,0,0,1-43.121,62.8,545.366,545.366,0,0,1-51.182,56.962c-39.054,37.57-80.452,65.1-123.045,81.823-29.9,11.738-60.393,18.059-90.641,18.788Q1130.586,4185.382,1127.621,4185.382Zm-282-179.728c13.992,17.867,28.23,34.5,42.445,49.578a539.072,539.072,0,0,0,51.055,47.838,402.845,402.845,0,0,0,50.294,35.231,315.173,315.173,0,0,0,49.284,23.619c60.622,22.587,122.169,21.944,182.934-1.913,41.734-16.387,82.361-43.42,120.75-80.352a538.394,538.394,0,0,0,50.522-56.229,618.709,618.709,0,0,0,42.636-62.1c24.927-41.459,44.9-85.429,57.763-127.156,12.229-39.674,17.45-75.34,15.162-103.414-44.7-3.024-86.308-3.507-123.729-1.437-36.724,2.032-70.636,6.594-100.8,13.558-28.746,6.638-55.087,15.693-78.291,26.915a275.381,275.381,0,0,0-59.292,38.456c-31.34,26.834-56.119,61.169-75.753,104.969-18.723,41.768-30.893,87.965-40.3,128.128a186.275,186.275,0,0,0,34.117,3.943,184.33,184.33,0,0,0,37.541-3.084c24.973-4.638,50.324-14.6,75.349-29.618,25.132-15.08,50.641-35.674,75.819-61.212,25.247-25.608,50.863-56.9,76.135-93l16.391-23.416-10.259,26.678a526.085,526.085,0,0,1-33.859,72.264,351.833,351.833,0,0,1-39.145,55.818,257.467,257.467,0,0,1-44.088,40.542,220.8,220.8,0,0,1-48.6,26.39c-23.231,9.026-48.669,14.23-75.608,15.467-25.441,1.167-53.1-1.166-82.2-6.938C962.767,4055.437,908.252,4035.93,845.618,4005.655Z" transform="translate(0 0)" fill="url(#linear-gradient)"/>
  </g>
</svg>
